<svg width="450" height="450" viewBox="0 0 450 450" fill="none" xmlns="http://www.w3.org/2000/svg">
<rect width="450" height="450" rx="53" fill="#014520"/>
<path d="M306.431 159.584C315.728 158.862 322.848 163.932 327.751 171.423C333.453 180.134 338.911 189.024 344.538 197.777L381.453 255.111L406.543 294.129C413.031 304.319 420.918 312.417 418.446 325.409C415.968 338.412 403.668 345.407 391.023 342.867C381.961 341.047 377.478 334.687 373.033 327.224C361.568 309.329 350.041 291.382 338.521 273.504C328.241 257.55 318.183 241.335 307.558 225.603C307.388 225.39 307.386 225.463 307.031 225.35C306.278 225.979 299.221 237.731 297.816 239.876C282.333 263.549 267.481 287.644 251.923 311.272C248.911 315.864 245.921 320.472 242.956 325.094C237.098 334.414 233.507 341.762 221.034 343.264C203.378 345.389 190.144 327.182 197.523 311.117C198.815 308.304 201.602 304.424 203.38 301.647L214.663 284.074L254.711 221.912L277.488 186.376C281.476 180.133 285.376 173.259 290.013 167.512C294.501 161.947 299.463 160.194 306.431 159.584Z" fill="#EC3D00"/>
<path d="M171.063 107.082C176.971 106.524 184.569 108.848 188.636 113.319C192.338 117.39 195.217 122.645 198.117 127.351L209.008 144.972L222.32 166.371C228.635 176.44 236.909 185.934 233.445 198.408C230.134 210.665 217.477 217.699 205.197 214.4C192.098 210.881 187.285 196.091 180.289 185.788C177.891 182.256 174.358 177.068 172.401 173.477C169.981 177.779 166.34 183.333 163.667 187.657C158.155 196.731 152.55 205.749 146.854 214.709L112.833 269.694C106.462 279.972 99.3708 290.779 93.2363 301.102L81.2175 320.547C78.3853 325.187 75.6828 329.837 72.5228 334.227C64.9368 344.762 49.72 346.409 39.6493 338.427C31.5018 331.972 28.519 320.142 33.2693 310.712C35.6895 305.909 39.0935 301.067 41.9783 296.497L54.4005 276.487L89.2645 220.284L130.504 153.877L143.916 132.124C147.493 126.268 151.155 119.884 155.403 114.523C159.444 109.424 164.795 107.719 171.063 107.082Z" fill="#FEFEFA"/>
</svg>
